<svg xmlns="http://www.w3.org/2000/svg" viewBox="0 0 24 24" fill="#000">
  <path d="M12 2a2.5 2.5 0 0 1 2.36 3.31l1.64-.95A2.5 2.5 0 1 1 19 9.5c0 .36-.06.71-.17 1.03l-1.66.96c.53.68.84 1.53.84 2.46 0 .41-.06.81-.16 1.18l1.6.92A2.5 2.5 0 1 1 18 20.5c0-.65.25-1.25.66-1.7l-1.67-.97A6.7 6.7 0 0 1 12 19.5a6.7 6.7 0 0 1-4.99-2.14l-1.67.97c.41.45.66 1.05.66 1.7A2.5 2.5 0 1 1 4 17.5c0-.98.56-1.83 1.37-2.25l1.6-.92a4.8 4.8 0 0 1-.16-1.18c0-.93.31-1.78.84-2.46l-1.66-.96A2.5 2.5 0 1 1 5 6.5a2.5 2.5 0 0 1 3.64-2.22l1.64.95A2.5 2.5 0 0 1 12 2Zm0 7.5a2.5 2.5 0 1 0 0 5 2.5 2.5 0 0 0 0-5Z"/>
</svg>